<?xml version="1.0" encoding="utf-8"?>
<!-- Generator: Adobe Illustrator 23.0.6, SVG Export Plug-In . SVG Version: 6.00 Build 0)  -->
<svg version="1.1"
	 id="svg423" inkscape:version="0.92.2 5c3e80d, 2017-08-06" sodipodi:docname="linux-ssd-vps-managed.svg" xmlns:cc="http://creativecommons.org/ns#" xmlns:dc="http://purl.org/dc/elements/1.1/" xmlns:inkscape="http://www.inkscape.org/namespaces/inkscape" xmlns:rdf="http://www.w3.org/1999/02/22-rdf-syntax-ns#" xmlns:sodipodi="http://sodipodi.sourceforge.net/DTD/sodipodi-0.dtd" xmlns:svg="http://www.w3.org/2000/svg"
	 xmlns="http://www.w3.org/2000/svg" xmlns:xlink="http://www.w3.org/1999/xlink" x="0px" y="0px" viewBox="0 0 473 512.4"
	 style="enable-background:new 0 0 473 512.4;" xml:space="preserve">
<style type="text/css">
	.st0{fill:url(#polygon123_1_);}
	.st1{fill:url(#polygon125_1_);}
	.st2{fill:url(#polygon127_1_);}
	.st3{fill:url(#polygon129_1_);}
	.st4{fill:url(#polygon131_1_);}
	.st5{fill:url(#polygon133_1_);}
	.st6{fill:url(#polygon135_1_);}
	.st7{fill:#1C40F2;}
	.st8{fill:url(#polygon141_1_);}
	.st9{fill:url(#polygon147_1_);}
	.st10{opacity:0.4;}
	.st11{fill:url(#polygon163_1_);}
	.st12{fill:url(#polygon167_1_);}
	.st13{opacity:0.5;fill:url(#path171_1_);enable-background:new    ;}
	.st14{opacity:0.5;fill:url(#path173_1_);enable-background:new    ;}
	.st15{fill:none;stroke:#FFFFFF;stroke-width:0.62;stroke-miterlimit:10;}
	.st16{fill:none;stroke:#0A00E9;stroke-width:0.62;stroke-miterlimit:10;}
	.st17{fill:#00113A;}
	.st18{fill:#FFC2B0;}
	.st19{fill:#FC4349;}
	.st20{fill:url(#path195_1_);}
	.st21{fill:#FFFFFF;}
	.st22{opacity:0.46;fill:#FFFFFF;enable-background:new    ;}
	.st23{fill:#513554;}
	.st24{fill:#00165B;}
	.st25{fill:#FCFEFF;}
	.st26{fill:#715154;}
	.st27{fill:url(#rect251_1_);}
	.st28{fill:url(#rect265_1_);}
	.st29{fill:url(#path267_1_);}
	.st30{fill:url(#path271_1_);}
	.st31{fill:url(#path275_1_);}
	.st32{fill:url(#path277_1_);}
	.st33{fill:url(#path281_1_);}
	.st34{fill:url(#path283_1_);}
	.st35{fill:url(#path285_1_);}
	.st36{fill:url(#path287_1_);}
	.st37{fill:url(#path289_1_);}
	.st38{fill:url(#path291_1_);}
	.st39{fill:url(#path293_1_);}
	.st40{fill:url(#path295_1_);}
	.st41{fill:url(#path297_1_);}
	.st42{fill:url(#path299_1_);}
	.st43{fill:url(#path301_1_);}
	.st44{fill:url(#path303_1_);}
	.st45{fill:url(#path305_1_);}
	.st46{fill:url(#path307_1_);}
	.st47{fill:url(#path309_1_);}
	.st48{fill:url(#path311_1_);}
	.st49{fill:url(#path313_1_);}
	.st50{fill:url(#path315_1_);}
	.st51{fill:url(#path317_1_);}
	.st52{fill:url(#path319_1_);}
	.st53{fill:url(#path321_1_);}
	.st54{fill:url(#path323_1_);}
	.st55{fill:url(#path325_1_);}
	.st56{fill:url(#path327_1_);}
	.st57{fill:url(#path329_1_);}
	.st58{fill:url(#path331_1_);}
	.st59{fill:url(#path333_1_);}
	.st60{fill:url(#path335_1_);}
	.st61{fill:url(#path337_1_);}
	.st62{fill:url(#path339_1_);}
	.st63{fill:url(#path341_1_);}
	.st64{fill:url(#path343_1_);}
	.st65{fill:url(#path345_1_);}
	.st66{fill:url(#path347_1_);}
	.st67{fill:url(#path349_1_);}
	.st68{fill:url(#path351_1_);}
	.st69{fill:url(#path353_1_);}
	.st70{fill:url(#path355_1_);}
	.st71{fill:url(#path357_1_);}
	.st72{fill:url(#path359_1_);}
	.st73{fill:url(#path361_1_);}
	.st74{fill:url(#path363_1_);}
	.st75{fill:url(#path365_1_);}
	.st76{fill:url(#path367_1_);}
	.st77{fill:url(#path369_1_);}
	.st78{fill:url(#path371_1_);}
	.st79{fill:url(#path373_1_);}
	.st80{fill:#C3CFE2;}
	.st81{fill:url(#path377_1_);}
	.st82{fill:url(#path379_1_);}
	.st83{fill:url(#path381_1_);}
	.st84{fill:url(#path383_1_);}
	.st85{fill:#FFAA82;}
	.st86{fill:url(#path389_1_);}
	.st87{fill:#492817;}
	.st88{fill:#EA8A6C;}
	.st89{fill:none;stroke:#00113A;stroke-miterlimit:10;}
	.st90{clip-path:url(#SVGID_2_);}
	.st91{clip-path:url(#SVGID_4_);}
	.st92{fill:#D7D7F4;}
</style>
<sodipodi:namedview  bordercolor="#666666" borderopacity="1" gridtolerance="10" guidetolerance="10" id="namedview425" inkscape:current-layer="Layer_4" inkscape:cx="319.68144" inkscape:cy="163.82535" inkscape:pageopacity="0" inkscape:pageshadow="2" inkscape:window-height="976" inkscape:window-maximized="0" inkscape:window-width="1684" inkscape:window-x="0" inkscape:window-y="0" inkscape:zoom="1.3027358" objecttolerance="10" pagecolor="#ffffff" showgrid="false">
	</sodipodi:namedview>
<title  id="title119">linux-ssd-vps-managed</title>
<g id="g421">
	<g id="Layer_2">
		<g id="Layer_4">
			
				<linearGradient id="polygon123_1_" gradientUnits="userSpaceOnUse" x1="-1032.9618" y1="443.0489" x2="-853.8217" y2="172.8989" gradientTransform="matrix(-1 0 0 -1 -786.27 514)">
				<stop  offset="0" style="stop-color:#0A00E9"/>
				<stop  offset="1" style="stop-color:#00165B"/>
			</linearGradient>
			<polygon id="polygon123" class="st0" points="46.7,250.4 127.7,297.2 208.8,250.4 127.7,203.5 			"/>
			
				<linearGradient id="polygon125_1_" gradientUnits="userSpaceOnUse" x1="-1048.0535" y1="433.0377" x2="-868.9135" y2="162.8877" gradientTransform="matrix(-1 0 0 -1 -786.27 514)">
				<stop  offset="0" style="stop-color:#0A00E9"/>
				<stop  offset="1" style="stop-color:#00165B"/>
			</linearGradient>
			<polygon id="polygon125" class="st1" points="46.7,283.1 127.7,329.9 208.8,283.1 127.7,236.3 			"/>
			
				<linearGradient id="polygon127_1_" gradientUnits="userSpaceOnUse" x1="-1041.4198" y1="302.8929" x2="-697.5098" y2="285.4229" gradientTransform="matrix(-1 0 0 -1 -786.27 514)">
				<stop  offset="0" style="stop-color:#0A00E9"/>
				<stop  offset="1" style="stop-color:#00165B"/>
			</linearGradient>
			<polygon id="polygon127" class="st2" points="46.7,217.6 127.7,264.4 208.8,217.6 127.7,170.8 			"/>
			
				<linearGradient id="polygon129_1_" gradientUnits="userSpaceOnUse" x1="-996.0148" y1="214.8653" x2="-867.4348" y2="-27.9347" gradientTransform="matrix(-0.87 0.5 0 -1.15 -682.74 950.11)">
				<stop  offset="0" style="stop-color:#0A00E9"/>
				<stop  offset="1" style="stop-color:#00165B"/>
			</linearGradient>
			<polygon id="polygon129" class="st3" points="127.7,287.8 208.8,241 208.8,217.6 127.7,264.4 			"/>
			
				<linearGradient id="polygon131_1_" gradientUnits="userSpaceOnUse" x1="-1011.4292" y1="319.6859" x2="-815.0892" y2="407.8259" gradientTransform="matrix(-0.87 -0.5 0 -1.15 -698.88 224.28)">
				<stop  offset="0" style="stop-color:#0A00E9"/>
				<stop  offset="1" style="stop-color:#00165B"/>
			</linearGradient>
			<polygon id="polygon131" class="st4" points="46.6,241 127.7,287.8 127.7,264.4 46.6,217.6 			"/>
			
				<linearGradient id="polygon133_1_" gradientUnits="userSpaceOnUse" x1="-1000.7871" y1="295.972" x2="-804.4471" y2="384.112" gradientTransform="matrix(-0.87 -0.5 0 -1.15 -698.88 224.28)">
				<stop  offset="0" style="stop-color:#0A00E9"/>
				<stop  offset="1" style="stop-color:#00165B"/>
			</linearGradient>
			<polygon id="polygon133" class="st5" points="46.6,273.8 127.7,320.6 127.7,297.2 46.6,250.4 			"/>
			
				<linearGradient id="polygon135_1_" gradientUnits="userSpaceOnUse" x1="-990.1433" y1="272.2545" x2="-793.8033" y2="360.3945" gradientTransform="matrix(-0.87 -0.5 0 -1.15 -698.88 224.28)">
				<stop  offset="0" style="stop-color:#0A00E9"/>
				<stop  offset="1" style="stop-color:#00165B"/>
			</linearGradient>
			<polygon id="polygon135" class="st6" points="46.6,306.5 127.7,353.3 127.7,329.9 46.6,283.1 			"/>
			<polygon id="polygon137" class="st7" points="148.4,266.5 200.7,236.3 200.7,231.2 148.4,261.4 			"/>
			
				<ellipse id="ellipse139" transform="matrix(0.5 -0.866 0.866 0.5 -164.2926 254.5069)" class="st7" cx="138.3" cy="269.5" rx="2.9" ry="1.7"/>
			
				<linearGradient id="polygon141_1_" gradientUnits="userSpaceOnUse" x1="-1007.8013" y1="208.6307" x2="-879.2213" y2="-34.1693" gradientTransform="matrix(-0.87 0.5 0 -1.15 -682.74 950.11)">
				<stop  offset="0" style="stop-color:#0A00E9"/>
				<stop  offset="1" style="stop-color:#00165B"/>
			</linearGradient>
			<polygon id="polygon141" class="st8" points="127.7,320.6 208.8,273.8 208.8,250.4 127.7,297.2 			"/>
			<polygon id="polygon143" class="st7" points="148.4,299.3 200.7,269.1 200.7,263.9 148.4,294.1 			"/>
			
				<ellipse id="ellipse145" transform="matrix(0.5 -0.866 0.866 0.5 -192.6768 270.8941)" class="st7" cx="138.3" cy="302.3" rx="2.9" ry="1.7"/>
			
				<linearGradient id="polygon147_1_" gradientUnits="userSpaceOnUse" x1="-1019.5808" y1="202.3845" x2="-891.0108" y2="-40.4155" gradientTransform="matrix(-0.87 0.5 0 -1.15 -682.74 950.11)">
				<stop  offset="0" style="stop-color:#0A00E9"/>
				<stop  offset="1" style="stop-color:#00165B"/>
			</linearGradient>
			<polygon id="polygon147" class="st9" points="127.7,353.3 208.8,306.5 208.8,283.1 127.7,329.9 			"/>
			<polygon id="polygon149" class="st7" points="148.4,332 200.7,301.8 200.7,296.7 148.4,326.9 			"/>
			
				<ellipse id="ellipse151" transform="matrix(0.5 -0.866 0.866 0.5 -221.0473 287.285)" class="st7" cx="138.3" cy="335.1" rx="2.9" ry="1.7"/>
			<g id="g155" class="st10">
				
					<image style="overflow:visible;enable-background:new    ;" width="152" height="119" id="image153" xlink:href="200DFB38.png"  transform="matrix(1 0 0 1 52 156.39)">
				</image>
			</g>
			<polygon id="polygon157" points="189.9,97.6 180.7,92.2 184,94.1 193.2,99.4 			"/>
			<polygon id="polygon159" points="183.2,93.7 174,88.4 180.7,92.2 189.9,97.6 			"/>
			<polygon id="polygon161" points="179.9,91.9 170.7,86.5 174,88.4 183.2,93.7 			"/>
			
				<linearGradient id="polygon163_1_" gradientUnits="userSpaceOnUse" x1="202.3922" y1="517.6891" x2="126.4022" y2="319.1192" gradientTransform="matrix(1 0 0 -1 0 514)">
				<stop  offset="0" style="stop-color:#0A00E9"/>
				<stop  offset="1" style="stop-color:#00165B"/>
			</linearGradient>
			<polygon id="polygon163" class="st11" points="170.7,86.5 167.4,92.2 120.6,173.3 129.8,178.7 176.7,97.5 179.9,91.9 			"/>
			<polygon id="polygon165" points="113.2,169.2 104,163.9 120.6,173.3 129.8,178.7 			"/>
			
				<linearGradient id="polygon167_1_" gradientUnits="userSpaceOnUse" x1="147.6397" y1="475.6501" x2="78.0097" y2="271.6701" gradientTransform="matrix(1 0 0 -1 0 514)">
				<stop  offset="0" style="stop-color:#0A00E9"/>
				<stop  offset="1" style="stop-color:#00165B"/>
			</linearGradient>
			<polygon id="polygon167" class="st12" points="104,163.9 100.7,162 97.4,167.6 90.7,179.2 87.4,184.9 96.6,190.3 99.9,184.6 
				106.6,173 109.9,167.4 113.2,169.2 			"/>
			<polygon id="polygon169" class="st7" points="179.9,91.9 183.2,93.7 189.9,97.6 193.2,99.4 189.9,105.1 133.1,203.5 129.9,209.2 
				126.6,207.3 99.9,192.1 96.6,190.3 99.9,184.6 106.6,173 109.9,167.4 113.2,169.2 129.8,178.7 176.7,97.5 			"/>
			
				<linearGradient id="path171_1_" gradientUnits="userSpaceOnUse" x1="288.7494" y1="460.8191" x2="438.5394" y2="348.6691" gradientTransform="matrix(1 0 0 -1 0 514)">
				<stop  offset="0" style="stop-color:#4500E9"/>
				<stop  offset="5.000000e-02" style="stop-color:#4008EA;stop-opacity:0.87"/>
				<stop  offset="0.14" style="stop-color:#3715EC;stop-opacity:0.67"/>
				<stop  offset="0.23" style="stop-color:#3021EE;stop-opacity:0.49"/>
				<stop  offset="0.33" style="stop-color:#2A2AEF;stop-opacity:0.34"/>
				<stop  offset="0.44" style="stop-color:#2532F0;stop-opacity:0.21"/>
				<stop  offset="0.55" style="stop-color:#2138F1;stop-opacity:0.12"/>
				<stop  offset="0.67" style="stop-color:#1E3DF2;stop-opacity:5.000000e-02"/>
				<stop  offset="0.81" style="stop-color:#1D3FF2;stop-opacity:1.000000e-02"/>
				<stop  offset="1" style="stop-color:#1C40F2;stop-opacity:0"/>
			</linearGradient>
			<path id="path171" class="st13" d="M294.5,35.6c7.7,3,14.9,7.1,21.3,12.4c13.6,11.2,16.6,20.1,28.4,28c13.5,9,24.7,7.1,29.9,6.3
				c18-3,19.3-18.9,26.3-14.3c9.5,6.2,7.4,35,25.3,55c4.2,4.8,9.2,8.7,14.9,11.6l0.6,76.4l-146.5-84.6L294.5,35.6z"/>
			
				<linearGradient id="path173_1_" gradientUnits="userSpaceOnUse" x1="270.0071" y1="350.5805" x2="438.1771" y2="411.7305" gradientTransform="matrix(1 0 0 -1 0 514)">
				<stop  offset="0" style="stop-color:#4500E9"/>
				<stop  offset="5.000000e-02" style="stop-color:#4008EA;stop-opacity:0.87"/>
				<stop  offset="0.14" style="stop-color:#3715EC;stop-opacity:0.67"/>
				<stop  offset="0.23" style="stop-color:#3021EE;stop-opacity:0.49"/>
				<stop  offset="0.33" style="stop-color:#2A2AEF;stop-opacity:0.34"/>
				<stop  offset="0.44" style="stop-color:#2532F0;stop-opacity:0.21"/>
				<stop  offset="0.55" style="stop-color:#2138F1;stop-opacity:0.12"/>
				<stop  offset="0.67" style="stop-color:#1E3DF2;stop-opacity:5.000000e-02"/>
				<stop  offset="0.81" style="stop-color:#1D3FF2;stop-opacity:1.000000e-02"/>
				<stop  offset="1" style="stop-color:#1C40F2;stop-opacity:0"/>
			</linearGradient>
			<path id="path173" class="st14" d="M294.6,44.7c2.4,0.6,4.8,1.5,7,2.6c11.6,6.4,14.3,16.1,23.2,21.2c17,9.7,20.2-18.5,41.5-9.8
				c9.3,3.9,11.7,10.4,24.7,15.7c12.2,4.9,15.1,1.1,22.6,4.6c6.4,3,15.4,11.2,27.4,32.9v99l-146.5-84.6L294.6,44.7z"/>
			<polyline id="polyline175" class="st15" points="441.1,210.6 294.6,126 294.6,0 			"/>
			<path id="path177" class="st16" d="M294.6,44.4c2.4,0.6,4.8,1.6,7,2.8c11.6,6.3,14.3,16.2,23.2,21.2c17,9.7,20.2-18.5,41.5-9.7
				c9.3,3.8,11.7,10.5,24.7,15.7c12.2,4.9,15.2,1.1,22.6,4.7c6.4,3,15.5,11.1,27.5,32.8"/>
			<path id="path179" class="st16" d="M294.6,35.2c7.7,3,14.9,7.3,21.2,12.6c13.6,11.2,16.6,20.2,28.4,28.1
				c13.5,9,24.7,7.1,29.9,6.3c18-3,19.2-18.9,26.3-14.3c9.5,6.2,7.7,35.2,25.6,55.2c4.3,4.8,9.4,8.8,15.2,11.6"/>
			<path id="path187" class="st17" d="M317.4,225.9l-12.1,2.5l-1.6,4.2c-0.4,3-0.4,4.6,1.6,6.2c1.7,1.3,5.1,0.3,6.9-0.5l7.8-4.7
				c5.8-3.2,5.3-5.5,4.7-7.5l0,0C323.8,224,321.1,224.5,317.4,225.9z"/>
			<path id="path189" class="st17" d="M343.1,240.9l-11.7-4l-3.5,2.8c-1.9,2.4-2.6,3.8-1.7,6.2c0.8,2,4.3,2.8,6.2,3l9.1-0.1
				c6.6,0.2,7.4-2.1,7.8-4.1l0,0C349.6,242.3,347.1,241.4,343.1,240.9z"/>
			<path id="path191" class="st18" d="M301.8,90.7c-6.6,10-9.5,22.8-12.1,34.3c-0.6,2.1-0.7,4.3-0.1,6.4c2.2,8.1,4.7,15.7,5.7,24.2
				c0.5,4.3,7.2,4.3,6.8,0c-0.8-7.9-2.5-15.6-4.9-23.1c-0.5-1.4-1-2.8-1.5-4.2c0.5,1.3-0.2,2.2,0.1,1.1c0.2-0.7,0.3-1.4,0.5-2.1
				c2.5-11.1,5.2-23.5,11.5-33.2C310,90.5,304.2,87.1,301.8,90.7z"/>
			<path id="path193" class="st19" d="M299.9,93.4c-4.5,7.8-7.7,21-10.6,31.6c-1.1,2.9-0.4,5.6,1.5,5.5l6.2,0.9
				c1.5-0.1,4.5-3.4,5.2-5.9l7.9-27.1c1.3-4.4,0.3-8.2-2.2-8.8l-0.6-0.1C306.7,87.9,303.2,87.8,299.9,93.4z"/>
			
				<linearGradient id="path195_1_" gradientUnits="userSpaceOnUse" x1="286.1199" y1="375.1321" x2="321.9002" y2="375.1321" gradientTransform="matrix(1 0 0 -1 0 514)">
				<stop  offset="0" style="stop-color:#F5F7FA"/>
				<stop  offset="1" style="stop-color:#C3CFE2"/>
			</linearGradient>
			<path id="path195" class="st20" d="M320.8,142.7l-31.2,18c-1.1,0.6-2.5,0.3-3.1-0.8c-0.2-0.4-0.3-0.8-0.3-1.2V137
				c0-0.8,0.4-1.6,1.1-2l31.2-18c1.1-0.6,2.5-0.3,3.1,0.8c0.2,0.4,0.3,0.7,0.3,1.2v21.7C321.9,141.5,321.5,142.3,320.8,142.7z"/>
			<path id="path197" class="st21" d="M309,136.6c-0.2,2.8-1.6,5.3-4,6.9c-2.2,1.3-4,0.3-4-2.3c0.2-2.8,1.6-5.3,4-6.9
				C307.2,133.1,309,134.1,309,136.6z"/>
			<path id="path199" class="st18" d="M303.9,156.7l-2.3,1c-1.7,0.8-3.8,0-4.6-1.7l0,0c-0.8-1.8,0-3.8,1.7-4.6l2.3-1
				c1.8-0.8,3.8,0,4.6,1.7l0,0C306.4,153.9,305.6,155.9,303.9,156.7z"/>
			<path id="path201" class="st22" d="M330.2,68.9v1.3c0,0,0.2,3.8-3.6,1.9s-3.7-6.8-3.7-6.8S325.8,64.9,330.2,68.9z"/>
			<path id="path203" class="st23" d="M326.6,72.1c4.9,2.6,4.8-1.9,4.8-1.9l0,0l-0.1-1.5c-5.5-4.7-9-4.5-9-4.5
				C321.9,67.4,323.7,70.6,326.6,72.1z M323.1,65.4c0,0,2.8-0.1,7,3.5V70c0,0,0.1,3.3-3.5,1.4C324.4,70.2,323.1,67.9,323.1,65.4
				L323.1,65.4z"/>
			<polygon id="polygon205" class="st23" points="333.2,71 330.3,69.7 330.1,68 333,69.4 			"/>
			<path id="path207" class="st23" d="M322.5,65.4l-0.5-0.2c-0.3-0.2-0.5-0.5-0.6-0.9l0,0c0-0.4,0.2-0.5,0.5-0.4l0.5,0.2
				c0.3,0.2,0.5,0.5,0.6,0.9l0,0C323,65.4,322.8,65.6,322.5,65.4z"/>
			<path id="path209" class="st23" d="M341.5,74.1l-0.5-0.2c-0.3-0.2-0.5-0.5-0.6-0.9l0,0c0-0.3,0.2-0.5,0.5-0.4l0.5,0.2
				c0.3,0.2,0.5,0.5,0.6,0.9l0,0C341.9,74.1,341.7,74.2,341.5,74.1z"/>
			<path id="path211" class="st24" d="M341,72.8c-2.5-2.2-5.6-3.5-8.9-3.7l0.1,1.5l0,0c0.6,3,2.7,5.5,5.6,6.6
				C342.7,79.2,341,72.8,341,72.8z M337.6,76.5c-2.1-0.8-3.7-2.7-4.1-4.9l-0.2-1.2c2.6,0.2,5,1.2,7,2.9
				C340.3,73.2,341.3,77.9,337.6,76.5L337.6,76.5z"/>
			<path id="path213" class="st24" d="M334.2,72.4L334.2,72.4c-0.1-0.2-0.2-0.3-0.1-0.4l0.9-1c0.1-0.1,0.2,0,0.4,0.1l0,0
				c0.1,0.1,0.2,0.3,0.1,0.4l-0.9,1C334.5,72.6,334.3,72.5,334.2,72.4z"/>
			<path id="path215" class="st25" d="M323.7,67.4L323.7,67.4c-0.1-0.1-0.2-0.3-0.1-0.4l0.9-1c0.1-0.1,0.2,0,0.4,0.1l0,0
				c0.1,0.1,0.2,0.3,0.1,0.4l-0.9,1C324,67.6,323.8,67.5,323.7,67.4z"/>
			<path id="path217" class="st24" d="M322.6,166.8c4.5,13.2,4.9,27.3,4.5,41.1c-0.3,10.3-1.9,20.6-1.7,30.9
				c0.2,6.7,10.7,6.8,10.5,0c-0.3-10.6,1.4-21.2,1.7-31.8c0.4-14.4-0.2-29.3-4.9-43.1C330.5,157.6,320.4,160.4,322.6,166.8
				L322.6,166.8z"/>
			<path id="path219" class="st24" d="M301.5,155c2.4,8.6,3.4,17.4,4.3,26.2c0.5,5.2,1.1,10.2,0.6,15.4c-1.1,10.4-3,21.1-3,31.6
				c0,6.8,10.5,6.8,10.5,0c-0.1-10.7,1.9-21.5,3-32.1c0.5-5.3-0.2-10.6-0.7-15.9c-0.9-9.4-2-18.9-4.5-28
				C309.8,145.7,299.6,148.4,301.5,155L301.5,155z"/>
			<path id="path221" class="st24" d="M310.1,168.8L310.1,168.8c1,1.1-3.2-4.2-2-3.4c2.6,1.6,17.2,11.5,20.2,11.5
				c3.7,0.1,1.5-3.5,4.3-5.9c2.6-2.3,3.2-6.1,3.5-9.6c0.1-1,0-1.9-0.3-2.8c-0.5-0.9-1.2-1.7-2.1-2.3c-6.5-4.9-19.2-17-28.3-13.1
				C295,147.7,305.4,163.6,310.1,168.8z"/>
			<path id="path223" class="st19" d="M302.5,91.3c-1.9,2.5-1.7,4-1.6,7.4c0.1,3.3,2.3,6.1,5.5,7l32.4,9.1c0,0,1.9-12.5-4.5-16.2
				c-3.4-2-8.8-5.3-13-7.8C315.1,87,306.9,85.6,302.5,91.3z"/>
			<path id="path225" class="st18" d="M317.3,90.9l2.7-12.2l7.5,5l-2.3,11.1C325,96.6,316.7,95,317.3,90.9z"/>
			<path id="path227" class="st18" d="M321.8,60.8c0,0-7.5-5.2-7.5,7.5c0,8.5,4.9,16.2,12.5,19.9c4.5,2.1,10-0.6,10.3-5
				c1.1-6.4,1.1-12.4-1-17.5c0.3-5.3-3.3-3.4-9.6-3.8L321.8,60.8z"/>
			<path id="path229" class="st26" d="M317.5,85.4c0,0-8.6-3.2-7.8-15.4c0.9-13.2,13-12,19.7-12.7c3-0.3,5-0.7,8.1,2
				c2.8,2.5,0.2,8-3.8,8.4c-1.6,0.1-0.9,4.4-1.2,5.8c-0.6,2.6-2.2,3.9-2.8,6.4s-4.1,6.1-6.4,6.4C319.4,86.8,317.5,85.4,317.5,85.4z"
				/>
			<path id="path231" class="st19" d="M300.8,149.9c-2.1-0.8-1.6-36.3,0.3-55.9l36.5,17.4c-0.2,16.7-2.3,29.9-0.3,50.2L300.8,149.9z
				"/>
			<path id="path233" class="st19" d="M325.1,165.2c-9-3.3-17.6-6.9-22.7-13.1c-2.5-1.4-2.2-3.9,0.7-5.6l0,0
				c2.9-1.6,7.2-1.8,9.7-0.4l22.7,13.1c2.5,1.4,2.2,3.9-0.7,5.6l0,0C331.9,166.5,327.6,166.7,325.1,165.2z"/>
			<path id="path235" class="st19" d="M337.6,111.4l-6-2.9c-0.3,16.3-2.2,29.3-0.3,49.3h-0.1c0,1.1-0.8,2.3-2.4,3.3l0,0
				c-2.9,1.6-7.2,1.8-9.7,0.4c-4.2-1.5-8.3-3.2-12.4-5.2c5,3.8,11.5,6.5,18.4,9c2.5,1.4,6.9,1.3,9.7-0.4l0,0
				c1.6-0.9,2.4-2.1,2.4-3.3h0.1C335.3,141.3,337.4,128.1,337.6,111.4z"/>
			<path id="path237" class="st24" d="M341.3,74.5l-11.2,1.1c-0.4,0-0.7-0.3-0.8-0.7l0,0c0-0.4,0.3-0.7,0.6-0.8l11.2-1.1
				c0.4,0,0.7,0.3,0.8,0.7l0,0C341.9,74.1,341.6,74.5,341.3,74.5z"/>
			<path id="path239" class="st19" d="M330.1,96c-8.4-1.3-14,4-16-8.1l0,0c1.2-0.7,2.8-0.4,3.6,0.8c1.4,2.1,4.5,3.4,7.9,3
				c1-0.1,2,0.3,2.5,1.2L330.1,96z"/>
			<path id="path241" class="st18" d="M331.4,107c0.6,7,1.7,13.4,4.6,19.8c2.1,4.6,4.3,11.2,8.8,14.1c10.3,6.6,21.2-10.2,26-16.6
				c2.6-3.5-3.2-6.8-5.8-3.4c-2.8,3.6-12.9,19.5-18.1,12.6c-5.6-7.3-8-17.6-8.8-26.5C337.8,102.7,331.1,102.7,331.4,107L331.4,107z"
				/>
			<path id="path243" class="st19" d="M328,106.9c2,17.3,7.5,28.3,15,33.8c4,2.2,7.7-4.1,6.2-7.8c-7.5-6.7-10.1-17.1-10.9-29
				c-1.1-2.5-3.9-3.7-6.5-3l0,0C329.2,101.5,327.5,104.2,328,106.9z"/>
			<path id="rect245" class="st18" d="M363.1,127.8l-1-0.8c-1.8-1.5-2.1-4.1-0.7-6l3.3-4.1c1.5-1.8,4.1-2.1,6-0.7l1,0.8
				c1.8,1.5,2.1,4.1,0.7,6l-3.3,4.1C367.6,128.9,364.9,129.2,363.1,127.8z"/>
			<path id="path247" class="st26" d="M325.5,81c-0.4,0.3-1.3,9.1,6.1,7.7s5.9-8.8,5.9-8.8s-5.9,1.5-7.5-5.8S325.5,81,325.5,81z"/>
			<path id="path249" class="st18" d="M331.8,77.4c0.2,2.1-0.9,3.9-2.4,4c-0.2,0-0.3,0-0.5,0c-1.3-0.2-2.4-1.7-2.5-3.5
				c-0.2-2.1,0.9-3.9,2.4-4S331.6,75.3,331.8,77.4z"/>
			
				<linearGradient id="rect251_1_" gradientUnits="userSpaceOnUse" x1="-252.9304" y1="143.891" x2="-240.4004" y2="143.891" gradientTransform="matrix(-1.0013 3.069639e-03 -3.069639e-03 -1.0013 -9.298 516.2089)">
				<stop  offset="0" style="stop-color:#F5F7FA"/>
				<stop  offset="1" style="stop-color:#C3CFE2"/>
			</linearGradient>
			<path id="rect251" class="st27" d="M241.5,339.2l0.5,0.1c0.8,0.1,1.4,0.9,1.2,1.7l-9.1,61.3c-0.1,0.8-0.9,1.4-1.7,1.2l-0.5-0.1
				c-0.8-0.1-1.4-0.9-1.2-1.7l9.1-61.3C239.9,339.7,240.6,339.1,241.5,339.2z"/>
			<path id="path257" class="st17" d="M411.6,354.3l-39.8-27.2l14.4-57.5c1.3-5.3,7.4-7.6,12.5-4.7l28.4,15.9
				c3.9,2.2,6,6.7,4.1,15.7l-14,55.7c-0.5,2-2.5,3.2-4.5,2.7C412.4,354.7,412,354.5,411.6,354.3z"/>
			<path id="path259" class="st17" d="M336.1,347.3c-1.5-7.9-2.3-17.2,0.3-24.9c2.2-6.4,7.2-8.7,13.2-11.1c3.7-1.4,7.4-2.6,11.2-3.5
				c1.3-0.3,2.6-0.6,3.9-0.9c0.4-0.1,0.8-0.3,1.3-0.3c0.7,0,0.4-0.5-0.3,0.6c-0.1,0.5-0.1,1.1-0.2,1.7l0.5,0.9
				c-1.8-1.6,0.6-4.8,2.6-3.4c3,2.1,3.2,6.7,3.5,10.1c0.3,4.2,0.1,8.5,0.1,12.7c0,2.8-4.3,2.8-4.3,0c0-3.4,0.1-6.7,0-10.1
				c0-1.8-0.2-3.7-0.4-5.5c-0.1-0.7-0.3-3-1-3.5c0.9-1.1,1.7-2.3,2.6-3.4c4.2,3.6-6.8,5.3-8,5.6c-4.1,1-8.1,2.3-12,4
				c-3,1.3-6,2.5-7.6,5.5c-2.5,4.5-2.4,10.4-2.2,15.4c0.1,3,0.5,6,1,9C340.8,348.8,336.6,350,336.1,347.3L336.1,347.3z"/>
			<path id="path261" class="st24" d="M412.7,356.1l-44.3-29l14.4-57.5c1.3-5.3,7.4-7.6,12.5-4.7l28.4,15.9c3.9,2.1,5.9,6.5,5,10.8
				L412.7,356.1z"/>
			<path id="path263" class="st24" d="M414.4,356v-3.3l-4.6-0.1l-36-20.8c-2.1-1.2-5.7-1-8.1,0.3l-31,17.9l-2.9-0.1l-0.1,3.3l0,0
				c0.1,0.9,0.6,1.7,1.4,2l39.2,22.6c2.1,1.2,5.7,1,8.1-0.3l32-18.5c0.9-0.4,1.6-1.3,1.9-2.2l0,0l0,0
				C414.5,356.6,414.5,356.3,414.4,356z"/>
			
				<linearGradient id="rect265_1_" gradientUnits="userSpaceOnUse" x1="-451.1559" y1="108.4124" x2="-439.4059" y2="108.4124" gradientTransform="matrix(-0.9985 -2.803643e-03 2.803643e-03 -0.9985 -11.8395 511.7899)">
				<stop  offset="0" style="stop-color:#F5F7FA"/>
				<stop  offset="1" style="stop-color:#C3CFE2"/>
			</linearGradient>
			<path id="rect265" class="st28" d="M437.8,436.1l-0.4,0c-1.1,0.1-2-0.6-2.1-1.7l-7.6-58.8c-0.1-1.1,0.6-2,1.7-2.1l0.4,0
				c1.1-0.1,2,0.6,2.1,1.7l7.6,58.8C439.5,435,438.8,435.9,437.8,436.1z"/>
			
				<linearGradient id="path267_1_" gradientUnits="userSpaceOnUse" x1="-382.06" y1="81.875" x2="-369.7254" y2="81.875" gradientTransform="matrix(-1 0 0 -1 -10.69 514)">
				<stop  offset="0" style="stop-color:#F5F7FA"/>
				<stop  offset="1" style="stop-color:#C3CFE2"/>
			</linearGradient>
			<path id="path267" class="st29" d="M361,481.6L361,481.6c-1.1-0.1-2-1.1-1.9-2.2c0,0,0,0,0,0l8.2-94.9c0.1-1.1,1.1-2,2.3-1.9l0,0
				c1.1,0.1,2,1.1,1.9,2.3l-8.2,94.9C363.1,480.9,362.1,481.7,361,481.6z"/>
			<path id="path269" class="st7" d="M359.4,330.4c0.9,1.4,7.9-17.1,4-42.9l34.6,16.6c-1,16.7-1.6,21-5.9,41.4L359.4,330.4z"/>
			
				<linearGradient id="path271_1_" gradientUnits="userSpaceOnUse" x1="-454.2126" y1="151.7821" x2="-242.6776" y2="151.7821" gradientTransform="matrix(-1 0 0 -1 -10.69 514)">
				<stop  offset="0" style="stop-color:#F5F7FA"/>
				<stop  offset="1" style="stop-color:#C3CFE2"/>
			</linearGradient>
			<path id="path271" class="st30" d="M232,341.4v-6.2h8.5l57-32.9c2.5-1.4,6.2-1.6,8.3-0.3l128.6,74.2h9.1v6.4l0,0c0,1-0.6,2-2,2.8
				L378,422.1c-2.5,1.4-6.2,1.6-8.3,0.4l-136.2-78.6C232.5,343.4,231.9,342.4,232,341.4z"/>
			<path id="path273" class="st17" d="M377.4,377.2c-0.8-4.2-1.2-8.5-1.4-12.7c-0.2-6.4,0.2-13.8,4-19.2c2.4-3.5,6.4-5.1,10.1-7.1
				c3.8-2.2,7.7-4.1,11.8-5.8c5.5-2.1,11.7-2.2,15,3.7c3.8,6.9,0.4,14,0.2,21.1c-0.1,3-4.9,3.1-4.8,0c0.2-5.2,2.2-10.1,1.5-15.4
				c-0.3-2.5-1.4-5.3-4-6c-2-0.5-4.4,0.4-6.2,1.1c-3.4,1.4-6.8,3-10,4.9c-3.1,1.7-7.3,3.1-9.4,6.1c-3.2,4.5-3.3,11-3.2,16.3
				c0,4,0.4,7.9,1.1,11.8C382.6,379,378,380.3,377.4,377.2L377.4,377.2z"/>
			<linearGradient id="path275_1_" gradientUnits="userSpaceOnUse" x1="231.965" y1="356.0764" x2="443.52" y2="356.0764">
				<stop  offset="0" style="stop-color:#F5F7FA"/>
				<stop  offset="1" style="stop-color:#C3CFE2"/>
			</linearGradient>
			<path id="path275" class="st31" d="M369.6,416.3l-136.2-78.6c-2.1-1.2-1.9-3.4,0.6-4.8l63.5-36.7c2.5-1.4,6.2-1.6,8.3-0.3
				l136.2,78.6c2.1,1.2,1.9,3.4-0.6,4.8L377.9,416C375.5,417.4,371.7,417.5,369.6,416.3z"/>
			
				<linearGradient id="path277_1_" gradientUnits="userSpaceOnUse" x1="-393.5061" y1="170.7334" x2="-335.9053" y2="170.7334" gradientTransform="matrix(-1 0 0 -1 -10.69 514)">
				<stop  offset="0" style="stop-color:#F5F7FA"/>
				<stop  offset="1" style="stop-color:#C3CFE2"/>
			</linearGradient>
			<path id="path277" class="st32" d="M382.6,349.3L338.9,327c-0.2-0.1-0.5-0.1-0.8,0l-12.6,7.4c-0.4,0.2-0.5,0.7-0.3,1
				c0.1,0.1,0.2,0.2,0.3,0.3l41.3,23.8c0.2,0.1,0.5,0.1,0.8,0l14.3-8.2C382.4,351,383.1,349.6,382.6,349.3z"/>
			<path id="path279" class="st21" d="M366.8,358l-41.3-23.8c-0.4-0.3-0.4-0.8-0.2-1.1c0.1-0.1,0.2-0.2,0.3-0.2l14.4-8.1
				c0.3-0.1,0.6-0.1,0.8,0l41.4,23.9c0.4,0.3,0.4,0.8,0.2,1.1c-0.1,0.1-0.2,0.2-0.3,0.3l-14.5,8.1
				C367.4,358.1,367.1,358.1,366.8,358z"/>
			
				<linearGradient id="path281_1_" gradientUnits="userSpaceOnUse" x1="-354.1389" y1="181.2889" x2="-408.1688" y2="152.7289" gradientTransform="matrix(-1 0 0 -1 -10.69 514)">
				<stop  offset="0" style="stop-color:#F5F7FA"/>
				<stop  offset="1" style="stop-color:#C3CFE2"/>
			</linearGradient>
			<path id="path281" class="st33" d="M338.3,331c-0.1,0-0.2,0-0.3,0l-2.8-1.6c-0.1-0.1-0.1-0.1-0.1-0.2l1.9-1.1c0.1,0,0.2,0,0.3,0
				l2.8,1.6c0.1,0.1,0.1,0.1,0.1,0.2L338.3,331z"/>
			
				<linearGradient id="path283_1_" gradientUnits="userSpaceOnUse" x1="-352.8636" y1="178.8779" x2="-406.8936" y2="150.3279" gradientTransform="matrix(-1 0 0 -1 -10.69 514)">
				<stop  offset="0" style="stop-color:#F5F7FA"/>
				<stop  offset="1" style="stop-color:#C3CFE2"/>
			</linearGradient>
			<path id="path283" class="st34" d="M341.5,335.8c-0.1,0-0.2,0-0.3,0l-2.8-1.6c-0.1-0.1-0.1-0.1-0.1-0.2l1.9-1.1
				c0.1,0,0.2,0,0.3,0l2.8,1.6c0.1,0.1,0.1,0.1,0.1,0.2L341.5,335.8z"/>
			
				<linearGradient id="path285_1_" gradientUnits="userSpaceOnUse" x1="-351.6855" y1="176.6515" x2="-405.7155" y2="148.1015" gradientTransform="matrix(-1 0 0 -1 -10.69 514)">
				<stop  offset="0" style="stop-color:#F5F7FA"/>
				<stop  offset="1" style="stop-color:#C3CFE2"/>
			</linearGradient>
			<path id="path285" class="st35" d="M339.9,337.8c-0.1,0-0.2,0-0.3,0l-2.8-1.6c-0.1-0.1-0.1-0.1-0.1-0.2l1.8-1.1
				c0.1,0,0.2,0,0.3,0l2.8,1.6c0.1,0.1,0.1,0.1,0.1,0.2L339.9,337.8z"/>
			
				<linearGradient id="path287_1_" gradientUnits="userSpaceOnUse" x1="-350.5596" y1="174.5203" x2="-404.5896" y2="145.9603" gradientTransform="matrix(-1 0 0 -1 -10.69 514)">
				<stop  offset="0" style="stop-color:#F5F7FA"/>
				<stop  offset="1" style="stop-color:#C3CFE2"/>
			</linearGradient>
			<path id="path287" class="st36" d="M335.5,338.2c-0.1,0-0.2,0-0.3,0l-2.8-1.6c-0.1-0.1-0.1-0.1-0.1-0.2l1.8-1.1
				c0.1,0,0.2,0,0.3,0l2.8,1.6c0.1,0.1,0.1,0.1,0.1,0.2L335.5,338.2z"/>
			
				<linearGradient id="path289_1_" gradientUnits="userSpaceOnUse" x1="-354.7306" y1="182.4211" x2="-408.7706" y2="153.8711" gradientTransform="matrix(-1 0 0 -1 -10.69 514)">
				<stop  offset="0" style="stop-color:#F5F7FA"/>
				<stop  offset="1" style="stop-color:#C3CFE2"/>
			</linearGradient>
			<path id="path289" class="st37" d="M376.9,350.2c-0.1,0-0.3,0-0.4-0.1l-3.6-2.1c-0.1-0.1-0.2-0.2-0.1-0.2l2.2-1.3
				c0.1,0,0.3,0,0.4,0.1l3.6,2.1c0.1,0.1,0.2,0.2,0.1,0.2L376.9,350.2z"/>
			
				<linearGradient id="path291_1_" gradientUnits="userSpaceOnUse" x1="-356.2092" y1="185.1973" x2="-410.2392" y2="156.6473" gradientTransform="matrix(-1 0 0 -1 -10.69 514)">
				<stop  offset="0" style="stop-color:#F5F7FA"/>
				<stop  offset="1" style="stop-color:#C3CFE2"/>
			</linearGradient>
			<path id="path291" class="st38" d="M343.1,328c-0.1,0-0.2,0-0.3,0l-2.8-1.6c-0.1-0.1-0.1-0.1-0.1-0.2l0.8-0.5c0,0,0.2,0,0.3,0
				l2.8,1.6c0.1,0.1,0.1,0.1,0.1,0.2L343.1,328z"/>
			
				<linearGradient id="path293_1_" gradientUnits="userSpaceOnUse" x1="-356.092" y1="184.9849" x2="-410.122" y2="156.4349" gradientTransform="matrix(-1 0 0 -1 -10.69 514)">
				<stop  offset="0" style="stop-color:#F5F7FA"/>
				<stop  offset="1" style="stop-color:#C3CFE2"/>
			</linearGradient>
			<path id="path293" class="st39" d="M346.8,330.2c0,0-0.2,0-0.3,0l-2.8-1.6c-0.1-0.1-0.1-0.1-0.1-0.2l0.8-0.5c0,0,0.2,0,0.3,0
				l2.8,1.6c0.1,0.1,0.1,0.1,0.1,0.2L346.8,330.2z"/>
			
				<linearGradient id="path295_1_" gradientUnits="userSpaceOnUse" x1="-356.0298" y1="184.8795" x2="-410.0697" y2="156.3195" gradientTransform="matrix(-1 0 0 -1 -10.69 514)">
				<stop  offset="0" style="stop-color:#F5F7FA"/>
				<stop  offset="1" style="stop-color:#C3CFE2"/>
			</linearGradient>
			<path id="path295" class="st40" d="M350.7,332.5c-0.1,0-0.2,0-0.3,0l-2.8-1.6c-0.1,0-0.1-0.1-0.1-0.2l0.8-0.4c0.1,0,0.2,0,0.3,0
				l2.8,1.6c0.1,0.1,0.1,0.1,0.1,0.2L350.7,332.5z"/>
			
				<linearGradient id="path297_1_" gradientUnits="userSpaceOnUse" x1="-355.2791" y1="183.4484" x2="-409.3091" y2="154.8884" gradientTransform="matrix(-1 0 0 -1 -10.69 514)">
				<stop  offset="0" style="stop-color:#F5F7FA"/>
				<stop  offset="1" style="stop-color:#C3CFE2"/>
			</linearGradient>
			<path id="path297" class="st41" d="M345.1,331.3c-0.1,0-0.2,0-0.3,0l-2.8-1.6c-0.1-0.1-0.1-0.1-0.1-0.2l0.8-0.4
				c0.1,0,0.2,0,0.3,0l2.8,1.6c0.1,0.1,0.1,0.1,0.1,0.2L345.1,331.3z"/>
			
				<linearGradient id="path299_1_" gradientUnits="userSpaceOnUse" x1="-355.2324" y1="183.3755" x2="-409.2724" y2="154.8155" gradientTransform="matrix(-1 0 0 -1 -10.69 514)">
				<stop  offset="0" style="stop-color:#F5F7FA"/>
				<stop  offset="1" style="stop-color:#C3CFE2"/>
			</linearGradient>
			<path id="path299" class="st42" d="M371.7,346.6c-0.1,0-0.2,0-0.3,0l-18.1-10.5c-0.1-0.1-0.1-0.1-0.1-0.2l2.2-1.3
				c0.1,0,0.2,0,0.3,0l18.1,10.5c0.1,0.1,0.1,0.1,0.1,0.2L371.7,346.6z"/>
			
				<linearGradient id="path301_1_" gradientUnits="userSpaceOnUse" x1="-355.2856" y1="183.4616" x2="-409.3156" y2="154.9117" gradientTransform="matrix(-1 0 0 -1 -10.69 514)">
				<stop  offset="0" style="stop-color:#F5F7FA"/>
				<stop  offset="1" style="stop-color:#C3CFE2"/>
			</linearGradient>
			<path id="path301" class="st43" d="M368.7,344.9c-0.1,0-0.2,0-0.3,0l-18.1-10.5c-0.1-0.1-0.1-0.1-0.1-0.2l2.2-1.3
				c0.1,0,0.2,0,0.3,0l18.1,10.5c0.1,0,0.1,0.1,0.1,0.2L368.7,344.9z"/>
			
				<linearGradient id="path303_1_" gradientUnits="userSpaceOnUse" x1="-350.4834" y1="174.3775" x2="-404.5234" y2="145.8274" gradientTransform="matrix(-1 0 0 -1 -10.69 514)">
				<stop  offset="0" style="stop-color:#F5F7FA"/>
				<stop  offset="1" style="stop-color:#C3CFE2"/>
			</linearGradient>
			<path id="path303" class="st44" d="M339.3,340.4c-0.1,0-0.2,0-0.3,0l-2.8-1.6c-0.1-0.1-0.1-0.1-0.1-0.2l1.8-1.1
				c0.1,0,0.2,0,0.3,0l2.8,1.6c0.1,0,0.1,0.1,0.1,0.2L339.3,340.4z"/>
			
				<linearGradient id="path305_1_" gradientUnits="userSpaceOnUse" x1="-350.4146" y1="174.2398" x2="-404.4446" y2="145.6898" gradientTransform="matrix(-1 0 0 -1 -10.69 514)">
				<stop  offset="0" style="stop-color:#F5F7FA"/>
				<stop  offset="1" style="stop-color:#C3CFE2"/>
			</linearGradient>
			<path id="path305" class="st45" d="M343.1,342.6c-0.1,0-0.2,0-0.3,0L340,341c-0.1-0.1-0.1-0.1-0.1-0.2l1.8-1.1c0.1,0,0.2,0,0.3,0
				l2.8,1.6c0.1,0.1,0.1,0.1,0.1,0.2L343.1,342.6z"/>
			
				<linearGradient id="path307_1_" gradientUnits="userSpaceOnUse" x1="-350.3332" y1="174.087" x2="-404.3631" y2="145.537" gradientTransform="matrix(-1 0 0 -1 -10.69 514)">
				<stop  offset="0" style="stop-color:#F5F7FA"/>
				<stop  offset="1" style="stop-color:#C3CFE2"/>
			</linearGradient>
			<path id="path307" class="st46" d="M346.9,344.8c-0.1,0-0.2,0-0.3,0l-2.8-1.6c-0.1-0.1-0.1-0.1-0.1-0.2l1.9-1.1
				c0.1,0,0.2,0,0.3,0l2.8,1.6c0.1,0.1,0.1,0.1,0.1,0.2L346.9,344.8z"/>
			
				<linearGradient id="path309_1_" gradientUnits="userSpaceOnUse" x1="-350.2519" y1="173.9447" x2="-404.2919" y2="145.3847" gradientTransform="matrix(-1 0 0 -1 -10.69 514)">
				<stop  offset="0" style="stop-color:#F5F7FA"/>
				<stop  offset="1" style="stop-color:#C3CFE2"/>
			</linearGradient>
			<path id="path309" class="st47" d="M350.8,347c-0.1,0-0.2,0-0.3,0l-2.8-1.6c-0.1-0.1-0.1-0.1-0.1-0.2l1.9-1.1c0.1,0,0.2,0,0.3,0
				l2.8,1.6c0.1,0.1,0.1,0.1,0.1,0.2L350.8,347z"/>
			
				<linearGradient id="path311_1_" gradientUnits="userSpaceOnUse" x1="-350.1734" y1="173.7976" x2="-404.2134" y2="145.2476" gradientTransform="matrix(-1 0 0 -1 -10.69 514)">
				<stop  offset="0" style="stop-color:#F5F7FA"/>
				<stop  offset="1" style="stop-color:#C3CFE2"/>
			</linearGradient>
			<path id="path311" class="st48" d="M354.6,349.3c-0.1,0-0.2,0-0.3,0l-2.8-1.6c-0.1-0.1-0.1-0.1-0.1-0.2l1.9-1.1
				c0.1,0,0.2,0,0.3,0l2.8,1.6c0.1,0.1,0.1,0.1,0.1,0.2L354.6,349.3z"/>
			
				<linearGradient id="path313_1_" gradientUnits="userSpaceOnUse" x1="-350.1016" y1="173.6542" x2="-404.1317" y2="145.0941" gradientTransform="matrix(-1 0 0 -1 -10.69 514)">
				<stop  offset="0" style="stop-color:#F5F7FA"/>
				<stop  offset="1" style="stop-color:#C3CFE2"/>
			</linearGradient>
			<path id="path313" class="st49" d="M358.4,351.5c-0.1,0-0.2,0-0.3,0l-2.8-1.6c-0.1-0.1-0.1-0.1-0.1-0.2l1.8-1.1
				c0.1,0,0.2,0,0.3,0l2.8,1.6c0.1,0.1,0.1,0.1,0.1,0.2L358.4,351.5z"/>
			
				<linearGradient id="path315_1_" gradientUnits="userSpaceOnUse" x1="-349.9853" y1="173.44" x2="-404.0253" y2="144.89" gradientTransform="matrix(-1 0 0 -1 -10.69 514)">
				<stop  offset="0" style="stop-color:#F5F7FA"/>
				<stop  offset="1" style="stop-color:#C3CFE2"/>
			</linearGradient>
			<path id="path315" class="st50" d="M367,356.5c-0.1,0-0.2,0-0.3,0l-7.6-4.5c-0.1-0.1-0.1-0.1-0.1-0.2l1.9-1c0.1,0,0.2,0,0.3,0
				l7.6,4.4c0.1,0.1,0.1,0.1,0.1,0.2L367,356.5z"/>
			
				<linearGradient id="path317_1_" gradientUnits="userSpaceOnUse" x1="-351.6262" y1="176.5318" x2="-405.6562" y2="147.9718" gradientTransform="matrix(-1 0 0 -1 -10.69 514)">
				<stop  offset="0" style="stop-color:#F5F7FA"/>
				<stop  offset="1" style="stop-color:#C3CFE2"/>
			</linearGradient>
			<path id="path317" class="st51" d="M343.7,340c-0.1,0-0.2,0-0.3,0l-2.8-1.6c-0.1-0.1-0.1-0.1-0.1-0.2l1.9-1.1c0.1,0,0.2,0,0.3,0
				l2.8,1.6c0.1,0.1,0.1,0.1,0.1,0.2L343.7,340z"/>
			
				<linearGradient id="path319_1_" gradientUnits="userSpaceOnUse" x1="-351.5362" y1="176.3628" x2="-405.5662" y2="147.8128" gradientTransform="matrix(-1 0 0 -1 -10.69 514)">
				<stop  offset="0" style="stop-color:#F5F7FA"/>
				<stop  offset="1" style="stop-color:#C3CFE2"/>
			</linearGradient>
			<path id="path319" class="st52" d="M347.5,342.2c-0.1,0-0.2,0-0.3,0l-2.8-1.6c-0.1-0.1-0.1-0.1-0.1-0.2l1.8-1.1
				c0.1,0,0.2,0,0.3,0l2.8,1.6c0.1,0.1,0.1,0.1,0.1,0.2L347.5,342.2z"/>
			
				<linearGradient id="path321_1_" gradientUnits="userSpaceOnUse" x1="-351.4553" y1="176.2211" x2="-405.4853" y2="147.6611" gradientTransform="matrix(-1 0 0 -1 -10.69 514)">
				<stop  offset="0" style="stop-color:#F5F7FA"/>
				<stop  offset="1" style="stop-color:#C3CFE2"/>
			</linearGradient>
			<path id="path321" class="st53" d="M351.3,344.5c-0.1,0-0.2,0-0.3,0l-2.8-1.6c-0.1,0-0.1-0.1-0.1-0.2l1.8-1.1c0.1,0,0.2,0,0.3,0
				l2.8,1.6c0.1,0.1,0.1,0.1,0.1,0.2L351.3,344.5z"/>
			
				<linearGradient id="path323_1_" gradientUnits="userSpaceOnUse" x1="-351.3868" y1="176.0929" x2="-405.4268" y2="147.543" gradientTransform="matrix(-1 0 0 -1 -10.69 514)">
				<stop  offset="0" style="stop-color:#F5F7FA"/>
				<stop  offset="1" style="stop-color:#C3CFE2"/>
			</linearGradient>
			<path id="path323" class="st54" d="M355.2,346.7c-0.1,0-0.2,0-0.3,0l-2.8-1.7c-0.1,0-0.1-0.1-0.1-0.2l1.8-1.1c0.1,0,0.2,0,0.3,0
				l2.8,1.6c0.1,0,0.1,0.1,0.1,0.2L355.2,346.7z"/>
			
				<linearGradient id="path325_1_" gradientUnits="userSpaceOnUse" x1="-351.3077" y1="175.9356" x2="-405.3377" y2="147.3756" gradientTransform="matrix(-1 0 0 -1 -10.69 514)">
				<stop  offset="0" style="stop-color:#F5F7FA"/>
				<stop  offset="1" style="stop-color:#C3CFE2"/>
			</linearGradient>
			<path id="path325" class="st55" d="M359,348.9c-0.1,0-0.2,0-0.3,0l-2.8-1.6c-0.1,0-0.1-0.1-0.1-0.2l1.9-1.1c0.1,0,0.2,0,0.3,0
				l2.8,1.6c0.1,0,0.1,0.1,0.1,0.2L359,348.9z"/>
			
				<linearGradient id="path327_1_" gradientUnits="userSpaceOnUse" x1="-351.2227" y1="175.7763" x2="-405.2527" y2="147.2263" gradientTransform="matrix(-1 0 0 -1 -10.69 514)">
				<stop  offset="0" style="stop-color:#F5F7FA"/>
				<stop  offset="1" style="stop-color:#C3CFE2"/>
			</linearGradient>
			<path id="path327" class="st56" d="M362.8,351.1c-0.1,0-0.2,0-0.3,0l-2.8-1.6c-0.1,0-0.1-0.1-0.1-0.2l1.8-1.1c0.1,0,0.2,0,0.3,0
				l2.8,1.6c0.1,0,0.1,0.1,0.1,0.2L362.8,351.1z"/>
			
				<linearGradient id="path329_1_" gradientUnits="userSpaceOnUse" x1="-351.1433" y1="175.6272" x2="-405.1833" y2="147.0772" gradientTransform="matrix(-1 0 0 -1 -10.69 514)">
				<stop  offset="0" style="stop-color:#F5F7FA"/>
				<stop  offset="1" style="stop-color:#C3CFE2"/>
			</linearGradient>
			<path id="path329" class="st57" d="M366.7,353.3c-0.1,0-0.2,0-0.3,0l-2.8-1.6c-0.1,0-0.1-0.1-0.1-0.2l1.9-1.1c0.1,0,0.2,0,0.3,0
				l2.8,1.6c0.1,0,0.1,0.1,0.1,0.2L366.7,353.3z"/>
			
				<linearGradient id="path331_1_" gradientUnits="userSpaceOnUse" x1="-352.8015" y1="178.7719" x2="-406.8416" y2="150.2119" gradientTransform="matrix(-1 0 0 -1 -10.69 514)">
				<stop  offset="0" style="stop-color:#F5F7FA"/>
				<stop  offset="1" style="stop-color:#C3CFE2"/>
			</linearGradient>
			<path id="path331" class="st58" d="M345.3,338c-0.1,0-0.2,0-0.3,0l-2.8-1.6c-0.1-0.1-0.1-0.1-0.1-0.2l1.8-1.1c0.1,0,0.2,0,0.3,0
				l2.8,1.6c0.1,0.1,0.1,0.1,0.1,0.2L345.3,338z"/>
			
				<linearGradient id="path333_1_" gradientUnits="userSpaceOnUse" x1="-352.7152" y1="178.5911" x2="-406.7453" y2="150.041" gradientTransform="matrix(-1 0 0 -1 -10.69 514)">
				<stop  offset="0" style="stop-color:#F5F7FA"/>
				<stop  offset="1" style="stop-color:#C3CFE2"/>
			</linearGradient>
			<path id="path333" class="st59" d="M349.1,340.3c-0.1,0-0.2,0-0.3,0l-2.8-1.6c-0.1-0.1-0.1-0.1-0.1-0.2l1.8-1.1
				c0.1,0,0.2,0,0.3,0l2.8,1.6c0.1,0.1,0.1,0.1,0.1,0.2L349.1,340.3z"/>
			
				<linearGradient id="path335_1_" gradientUnits="userSpaceOnUse" x1="-352.641" y1="178.4619" x2="-406.671" y2="149.9019" gradientTransform="matrix(-1 0 0 -1 -10.69 514)">
				<stop  offset="0" style="stop-color:#F5F7FA"/>
				<stop  offset="1" style="stop-color:#C3CFE2"/>
			</linearGradient>
			<path id="path335" class="st60" d="M353,342.5c-0.1,0-0.2,0-0.3,0l-2.8-1.6c-0.1,0-0.1-0.1-0.1-0.2l1.8-1.1c0.1,0,0.2,0,0.3,0
				l2.8,1.6c0.1,0.1,0.1,0.1,0.1,0.2L353,342.5z"/>
			
				<linearGradient id="path337_1_" gradientUnits="userSpaceOnUse" x1="-352.568" y1="178.3251" x2="-406.608" y2="149.7751" gradientTransform="matrix(-1 0 0 -1 -10.69 514)">
				<stop  offset="0" style="stop-color:#F5F7FA"/>
				<stop  offset="1" style="stop-color:#C3CFE2"/>
			</linearGradient>
			<path id="path337" class="st61" d="M356.8,344.7c-0.1,0-0.2,0-0.3,0l-2.8-1.7c-0.1,0-0.1-0.1-0.1-0.2l1.8-1.1c0.1,0,0.2,0,0.3,0
				l2.8,1.6c0.1,0,0.1,0.1,0.1,0.2L356.8,344.7z"/>
			
				<linearGradient id="path339_1_" gradientUnits="userSpaceOnUse" x1="-352.4848" y1="178.1602" x2="-406.5148" y2="149.6002" gradientTransform="matrix(-1 0 0 -1 -10.69 514)">
				<stop  offset="0" style="stop-color:#F5F7FA"/>
				<stop  offset="1" style="stop-color:#C3CFE2"/>
			</linearGradient>
			<path id="path339" class="st62" d="M360.6,346.9c-0.1,0-0.2,0-0.3,0l-2.8-1.6c-0.1,0-0.1-0.1-0.1-0.2l1.9-1.1c0.1,0,0.2,0,0.3,0
				l2.8,1.6c0.1,0,0.1,0.1,0.1,0.2L360.6,346.9z"/>
			
				<linearGradient id="path341_1_" gradientUnits="userSpaceOnUse" x1="-352.4018" y1="178.0045" x2="-406.4319" y2="149.4546" gradientTransform="matrix(-1 0 0 -1 -10.69 514)">
				<stop  offset="0" style="stop-color:#F5F7FA"/>
				<stop  offset="1" style="stop-color:#C3CFE2"/>
			</linearGradient>
			<path id="path341" class="st63" d="M364.5,349.1c-0.1,0-0.2,0-0.3,0l-2.8-1.6c-0.1,0-0.1-0.1-0.1-0.2l1.9-1.1c0.1,0,0.2,0,0.3,0
				l2.8,1.6c0.1,0,0.1,0.1,0.1,0.2L364.5,349.1z"/>
			
				<linearGradient id="path343_1_" gradientUnits="userSpaceOnUse" x1="-352.3223" y1="177.8555" x2="-406.3623" y2="149.3055" gradientTransform="matrix(-1 0 0 -1 -10.69 514)">
				<stop  offset="0" style="stop-color:#F5F7FA"/>
				<stop  offset="1" style="stop-color:#C3CFE2"/>
			</linearGradient>
			<path id="path343" class="st64" d="M368.3,351.3c-0.1,0-0.2,0-0.3,0l-2.8-1.6c-0.1-0.1-0.1-0.1-0.1-0.2l1.9-1.1
				c0.1,0,0.2,0,0.3,0l2.8,1.6c0.1,0,0.1,0.1,0.1,0.2L368.3,351.3z"/>
			
				<linearGradient id="path345_1_" gradientUnits="userSpaceOnUse" x1="-352.966" y1="179.0625" x2="-406.996" y2="150.5125" gradientTransform="matrix(-1 0 0 -1 -10.69 514)">
				<stop  offset="0" style="stop-color:#F5F7FA"/>
				<stop  offset="1" style="stop-color:#C3CFE2"/>
			</linearGradient>
			<path id="path345" class="st65" d="M337.7,333.6c-0.1,0-0.2,0-0.3,0l-4.7-2.7c-0.1,0-0.1-0.1-0.1-0.2l1.9-1.1c0.1,0,0.2,0,0.3,0
				l4.7,2.7c0.1,0.1,0.1,0.1,0.1,0.2L337.7,333.6z"/>
			
				<linearGradient id="path347_1_" gradientUnits="userSpaceOnUse" x1="-353.423" y1="179.9469" x2="-407.463" y2="151.3969" gradientTransform="matrix(-1 0 0 -1 -10.69 514)">
				<stop  offset="0" style="stop-color:#F5F7FA"/>
				<stop  offset="1" style="stop-color:#C3CFE2"/>
			</linearGradient>
			<path id="path347" class="st66" d="M374.7,352c-0.1,0-0.2,0-0.3,0l-4.7-2.7c-0.1,0-0.1-0.1-0.1-0.2l1.8-1.1c0.1,0,0.2,0,0.3,0
				l4.7,2.7c0.1,0.1,0.1,0.1,0.1,0.2L374.7,352z"/>
			
				<linearGradient id="path349_1_" gradientUnits="userSpaceOnUse" x1="-351.788" y1="176.8374" x2="-405.818" y2="148.2874" gradientTransform="matrix(-1 0 0 -1 -10.69 514)">
				<stop  offset="0" style="stop-color:#F5F7FA"/>
				<stop  offset="1" style="stop-color:#C3CFE2"/>
			</linearGradient>
			<path id="path349" class="st67" d="M336,335.6c-0.1,0-0.2,0-0.3,0l-5.6-3.3c-0.1-0.1-0.1-0.1-0.1-0.2l1.8-1.1c0.1,0,0.2,0,0.3,0
				l5.6,3.2c0.1,0.1,0.1,0.1,0.1,0.2L336,335.6z"/>
			
				<linearGradient id="path351_1_" gradientUnits="userSpaceOnUse" x1="-350.655" y1="174.6907" x2="-404.6851" y2="146.1406" gradientTransform="matrix(-1 0 0 -1 -10.69 514)">
				<stop  offset="0" style="stop-color:#F5F7FA"/>
				<stop  offset="1" style="stop-color:#C3CFE2"/>
			</linearGradient>
			<path id="path351" class="st68" d="M331.6,336c-0.1,0-0.2,0-0.3,0l-3.8-2.2c-0.1-0.1-0.1-0.1-0.1-0.2l1.8-1.1c0.1,0,0.2,0,0.3,0
				l3.8,2.2c0.1,0,0.1,0.1,0.1,0.2L331.6,336z"/>
			
				<linearGradient id="path353_1_" gradientUnits="userSpaceOnUse" x1="-354.0618" y1="181.1445" x2="-408.0918" y2="152.5945" gradientTransform="matrix(-1 0 0 -1 -10.69 514)">
				<stop  offset="0" style="stop-color:#F5F7FA"/>
				<stop  offset="1" style="stop-color:#C3CFE2"/>
			</linearGradient>
			<path id="path353" class="st69" d="M342.1,333.3c-0.1,0-0.2,0-0.3,0l-2.8-1.6c-0.1-0.1-0.1-0.1-0.1-0.2l1.9-1.1
				c0.1,0,0.2,0,0.3,0l2.8,1.6c0.1,0.1,0.1,0.1,0.1,0.2L342.1,333.3z"/>
			
				<linearGradient id="path355_1_" gradientUnits="userSpaceOnUse" x1="-353.98" y1="181.0011" x2="-408.0201" y2="152.4411" gradientTransform="matrix(-1 0 0 -1 -10.69 514)">
				<stop  offset="0" style="stop-color:#F5F7FA"/>
				<stop  offset="1" style="stop-color:#C3CFE2"/>
			</linearGradient>
			<path id="path355" class="st70" d="M345.9,335.5c-0.1,0-0.2,0-0.3,0l-2.8-1.6c-0.1-0.1-0.1-0.1-0.1-0.2l1.8-1.1
				c0.1,0,0.2,0,0.3,0l2.8,1.6c0.1,0.1,0.1,0.1,0.1,0.2L345.9,335.5z"/>
			
				<linearGradient id="path357_1_" gradientUnits="userSpaceOnUse" x1="-353.9103" y1="180.8516" x2="-407.9403" y2="152.3016" gradientTransform="matrix(-1 0 0 -1 -10.69 514)">
				<stop  offset="0" style="stop-color:#F5F7FA"/>
				<stop  offset="1" style="stop-color:#C3CFE2"/>
			</linearGradient>
			<path id="path357" class="st71" d="M349.7,337.7c-0.1,0-0.2,0-0.3,0l-2.8-1.6c-0.1-0.1-0.1-0.1-0.1-0.2l1.8-1.1
				c0.1,0,0.2,0,0.3,0l2.8,1.6c0.1,0.1,0.1,0.1,0.1,0.2L349.7,337.7z"/>
			
				<linearGradient id="path359_1_" gradientUnits="userSpaceOnUse" x1="-353.8339" y1="180.7084" x2="-407.8639" y2="152.1584" gradientTransform="matrix(-1 0 0 -1 -10.69 514)">
				<stop  offset="0" style="stop-color:#F5F7FA"/>
				<stop  offset="1" style="stop-color:#C3CFE2"/>
			</linearGradient>
			<path id="path359" class="st72" d="M353.6,339.9c-0.1,0-0.2,0-0.3,0l-2.8-1.6c-0.1-0.1-0.1-0.1-0.1-0.2l1.8-1.1
				c0.1,0,0.2,0,0.3,0l2.8,1.6c0.1,0.1,0.1,0.1,0.1,0.2L353.6,339.9z"/>
			
				<linearGradient id="path361_1_" gradientUnits="userSpaceOnUse" x1="-353.7544" y1="180.5693" x2="-407.7844" y2="152.0193" gradientTransform="matrix(-1 0 0 -1 -10.69 514)">
				<stop  offset="0" style="stop-color:#F5F7FA"/>
				<stop  offset="1" style="stop-color:#C3CFE2"/>
			</linearGradient>
			<path id="path361" class="st73" d="M357.4,342.1c-0.1,0-0.2,0-0.3,0l-2.8-1.6c-0.1-0.1-0.1-0.1-0.1-0.2l1.8-1.1
				c0.1,0,0.2,0,0.3,0l2.8,1.6c0.1,0.1,0.1,0.1,0.1,0.2L357.4,342.1z"/>
			
				<linearGradient id="path363_1_" gradientUnits="userSpaceOnUse" x1="-353.6858" y1="180.422" x2="-407.7158" y2="151.872" gradientTransform="matrix(-1 0 0 -1 -10.69 514)">
				<stop  offset="0" style="stop-color:#F5F7FA"/>
				<stop  offset="1" style="stop-color:#C3CFE2"/>
			</linearGradient>
			<path id="path363" class="st74" d="M361.2,344.3c-0.1,0-0.2,0-0.3,0l-2.8-1.6c-0.1-0.1-0.1-0.1-0.1-0.2l1.9-1.1
				c0.1,0,0.2,0,0.3,0l2.8,1.6c0.1,0.1,0.1,0.1,0.1,0.2L361.2,344.3z"/>
			
				<linearGradient id="path365_1_" gradientUnits="userSpaceOnUse" x1="-353.6114" y1="180.2927" x2="-407.6414" y2="151.7427" gradientTransform="matrix(-1 0 0 -1 -10.69 514)">
				<stop  offset="0" style="stop-color:#F5F7FA"/>
				<stop  offset="1" style="stop-color:#C3CFE2"/>
			</linearGradient>
			<path id="path365" class="st75" d="M365.1,346.5c-0.1,0-0.2,0-0.3,0l-2.8-1.6c-0.1-0.1-0.1-0.1-0.1-0.2l1.9-1.1
				c0.1,0,0.2,0,0.3,0l2.8,1.6c0.1,0.1,0.1,0.1,0.1,0.2L365.1,346.5z"/>
			
				<linearGradient id="path367_1_" gradientUnits="userSpaceOnUse" x1="-353.5267" y1="180.1337" x2="-407.5566" y2="151.5836" gradientTransform="matrix(-1 0 0 -1 -10.69 514)">
				<stop  offset="0" style="stop-color:#F5F7FA"/>
				<stop  offset="1" style="stop-color:#C3CFE2"/>
			</linearGradient>
			<path id="path367" class="st76" d="M368.9,348.7c-0.1,0-0.2,0-0.3,0l-2.8-1.6c-0.1-0.1-0.1-0.1-0.1-0.2l1.8-1.1
				c0.1,0,0.2,0,0.3,0l2.8,1.6c0.1,0.1,0.1,0.1,0.1,0.2L368.9,348.7z"/>
			
				<linearGradient id="path369_1_" gradientUnits="userSpaceOnUse" x1="-351.6891" y1="176.6473" x2="-405.7191" y2="148.0973" gradientTransform="matrix(-1 0 0 -1 -10.69 514)">
				<stop  offset="0" style="stop-color:#F5F7FA"/>
				<stop  offset="1" style="stop-color:#C3CFE2"/>
			</linearGradient>
			<path id="path369" class="st77" d="M371.1,350.7c0,0-0.1,0-0.2,0c0,0-0.1,0-0.1,0l-1.8,1.1c0,0,0,0.1,0,0.1c0,0,0,0.1,0.1,0.1
				l0.7,0.4l-2.4,1.4c0,0,0,0.1,0,0.1c0,0,0,0.1,0.1,0.1l1.9,1.1c0,0,0.1,0,0.2,0c0,0,0.1,0,0.1,0l4.4-2.5c0,0,0,0,0-0.1
				c0,0-0.1-0.1-0.1-0.1L371.1,350.7z"/>
			
				<linearGradient id="path371_1_" gradientUnits="userSpaceOnUse" x1="-1090.3849" y1="112.1549" x2="-1073.8049" y2="112.1549" gradientTransform="matrix(1.01 9.000000e-02 -0.15 -0.99 1450.1 562.24)">
				<stop  offset="4.000000e-02" style="stop-color:#FFFFFF"/>
				<stop  offset="0.32" style="stop-color:#FCFDFE"/>
				<stop  offset="0.51" style="stop-color:#F3F7FB"/>
				<stop  offset="0.67" style="stop-color:#E4EDF7"/>
				<stop  offset="0.82" style="stop-color:#CEDEF0"/>
				<stop  offset="0.96" style="stop-color:#B3CBE8"/>
				<stop  offset="1" style="stop-color:#A8C4E5"/>
			</linearGradient>
			<path id="path371" class="st78" d="M328.1,348.6c4.3-4.6,11.7,13,16.1,21c1.6,2.9,2.9,2.1,3.4,1.4c0.2-0.3,0.3-0.6,0.3-1
				l-4.9-32.5v-0.1c-0.1-0.2-0.2-0.5-0.3-0.7L328.1,348.6z"/>
			
				<linearGradient id="path373_1_" gradientUnits="userSpaceOnUse" x1="-348.17" y1="152.1648" x2="-326.46" y2="152.1648" gradientTransform="matrix(-1 0 0 -1 -10.69 514)">
				<stop  offset="0" style="stop-color:#F5F7FA"/>
				<stop  offset="1" style="stop-color:#C3CFE2"/>
			</linearGradient>
			<path id="path373" class="st79" d="M324.9,367.5l-8.5-4.9c-0.7-0.4-0.7-1-0.1-1.3L327,356c0.7-0.3,1.5-0.2,2.2,0.1l7.7,4.4
				c0.6,0.4,0.7,0.9,0.2,1.3l-10,5.8C326.4,368,325.5,367.9,324.9,367.5z"/>
			<path id="path375" class="st80" d="M324.7,366.5l-8.5-4.9c-0.7-0.4-0.7-1-0.1-1.3l10.8-5.3c0.7-0.3,1.5-0.2,2.2,0.1l7.7,4.4
				c0.6,0.4,0.7,0.9,0.2,1.3l-10,5.8C326.3,366.9,325.4,366.8,324.7,366.5z"/>
			
				<linearGradient id="path377_1_" gradientUnits="userSpaceOnUse" x1="-336.8838" y1="198.0989" x2="-336.2338" y2="171.3689" gradientTransform="matrix(-1 0 0 -1 -10.69 514)">
				<stop  offset="0" style="stop-color:#F5F7FA"/>
				<stop  offset="1" style="stop-color:#C3CFE2"/>
			</linearGradient>
			<path id="path377" class="st81" d="M350.3,341.9L350,341l-43.1-25.7l-0.4-0.3c-0.1,0-0.1-0.1-0.2-0.1l-7-4.1l-0.4-0.3
				c-0.4-0.3-0.9-0.3-1.3,0l-1.7,1l7.7,34.2c0.1,0.4,0.3,0.8,0.6,1.1l7.7,4c0.1,0.4,0.3,0.8,0.6,1c0,0,42.7,22.1,42.6,21.7
				L350.3,341.9z"/>
			
				<linearGradient id="path379_1_" gradientUnits="userSpaceOnUse" x1="-1083.6949" y1="108.4407" x2="-1067.115" y2="108.4407" gradientTransform="matrix(1.01 9.000000e-02 -0.15 -0.99 1450.1 562.24)">
				<stop  offset="0" style="stop-color:#F5F7FA"/>
				<stop  offset="1" style="stop-color:#C3CFE2"/>
			</linearGradient>
			<path id="path379" class="st82" d="M335.4,352.9c4.3-4.6,11.7,13,16.1,21c1.6,2.9,2.9,2.1,3.4,1.4c0.2-0.3,0.3-0.6,0.2-1
				l-4.9-32.5v-0.1c-0.1-0.2-0.2-0.4-0.3-0.6L335.4,352.9z"/>
			
				<linearGradient id="path381_1_" gradientUnits="userSpaceOnUse" x1="-355.2777" y1="181.4802" x2="-252.2977" y2="124.4702" gradientTransform="matrix(-1 0 0 -1 -10.69 514)">
				<stop  offset="0" style="stop-color:#F5F7FA"/>
				<stop  offset="1" style="stop-color:#C3CFE2"/>
			</linearGradient>
			<path id="path381" class="st83" d="M348.5,343c-0.1-0.3-0.3-0.6-0.5-0.9c-0.1-0.1-0.2-0.2-0.3-0.3l-8.2-4.9l-0.1-0.1l-43.2-25.7
				c-0.3-0.2-0.5-0.1-0.5,0.3l4.5,28.2c0,0.1,0.1,0.3,0.1,0.4l0.7,4.3c0.1,0.4,0.4,0.8,0.8,1l8,4.8c0.1,0.1,0.2,0.1,0.3,0.2l43,25.4
				c0.4,0.2,0.6,0.1,0.5-0.3L348.5,343z"/>
			
				<linearGradient id="path383_1_" gradientUnits="userSpaceOnUse" x1="-352.484" y1="176.4856" x2="-311.504" y2="139.4356" gradientTransform="matrix(-1 0 0 -1 -10.69 514)">
				<stop  offset="0" style="stop-color:#F5F7FA"/>
				<stop  offset="1" style="stop-color:#C3CFE2"/>
			</linearGradient>
			<path id="path383" class="st84" d="M315.9,352.4L315.9,352.4l0.5-7.4c0.1-1.6,1.8-2.3,3.3-1.5l7.8,4.2c1,0.5,1.6,1.5,1.5,2.6
				l-0.9,9.2c0,0.3-0.1,0.6-0.3,0.8l-0.6,6.1c-0.1,0.9-0.9,1.5-1.8,1.4c-0.3,0-0.5-0.1-0.8-0.3l-8.1-4.7c-0.8-0.4-1.2-1.2-1.2-2.1
				L315.9,352.4z"/>
			<path id="path385" class="st85" d="M374.5,279c-2.6,5.3-6,10.3-10,14.6c-1.7,1.8-3.2,3.7-4.6,5.7c-1.2,1.7-2,3.6-3.3,5.2
				c-1.7,2-3.3,2.3-6.4,2.8c-5.6,0.9-11.2,2.2-16.6,3.9c-4.5,1.5-2.6,8.5,2,7.1c5.6-1.7,11.2-3.1,17-4c3.4-0.6,6.5-1.6,8.8-4.2
				c3.2-3.4,5.1-7.8,8.2-11.3c4.5-4.8,8.3-10.2,11.2-16.1C382.9,278.5,376.6,274.7,374.5,279L374.5,279z"/>
			<path id="path387" class="st7" d="M363.1,283.9l-7,17.7c-0.8,5.5,11.5,7.7,12.6,3.3l5.2-17.6c0.7-2.8-0.9-5.7-3.7-6.7l0,0
				C367.4,279.6,364.2,281.1,363.1,283.9z"/>
			
				<linearGradient id="path389_1_" gradientUnits="userSpaceOnUse" x1="324.6" y1="196.2134" x2="340.8909" y2="196.2134" gradientTransform="matrix(1 0 0 -1 0 514)">
				<stop  offset="0" style="stop-color:#F5F7FA"/>
				<stop  offset="1" style="stop-color:#C3CFE2"/>
			</linearGradient>
			<path id="path389" class="st86" d="M325,321.2L325,321.2c-0.9-2.1,0-4.5,2.1-5.4l8.1-3.6c2.1-0.9,4.5,0,5.4,2.1l0,0
				c0.9,2.1,0,4.5-2.1,5.4l-8.1,3.6C328.3,324.2,325.9,323.3,325,321.2z"/>
			<path id="path391" class="st85" d="M356.2,350L356.2,350c-0.7-2.2,0.5-4.5,2.6-5.2l7.4-2.4c2.2-0.7,4.5,0.5,5.2,2.6l0,0
				c0.7,2.2-0.5,4.5-2.6,5.2l-7.4,2.4C359.2,353.3,356.9,352.2,356.2,350z"/>
			<path id="path393" class="st85" d="M393.8,317.8c0.8,16.6-14.4,23.4-28.6,25.4c-4.6,0.7-2.7,7.7,2,7.1
				c9.2-1.3,18.6-4.3,25.5-10.8c5.9-5.6,9-13.6,8.5-21.8C400.9,313.1,393.6,313.1,393.8,317.8L393.8,317.8z"/>
			<path id="path395" class="st85" d="M324.1,319L324.1,319c-0.9-2.1,0-4.5,2.1-5.4l8.1-3.6c2.1-0.9,4.5,0,5.4,2.1l4.2,3.4
				l-14.4,5.5C327.4,322,325,321.1,324.1,319z"/>
			<path id="path397" class="st7" d="M365.9,281.4c-2.3,2.4-2.3,4-2.6,7.5c-0.3,3.5,1.7,6.7,4.9,8l32.9,13.4c0,0,3.5-12.8-2.8-17.5
				c-3.4-2.5-8.6-6.6-12.7-9.7C379.6,278.5,371.2,276,365.9,281.4z"/>
			<path id="path399" class="st7" d="M390.8,299.8l2.3,18.9c1.9,5.2,13.8,1.3,12.6-3.1l-3.8-18c-0.8-2.8-3.5-4.6-6.4-4.1l0,0
				C392.5,293.9,390.4,296.7,390.8,299.8z"/>
			<path id="path401" class="st85" d="M379,285.7l-1.7-14.9l8.6,4.1l1.4,12.1C387.7,289.1,380.7,293.4,379,285.7z"/>
			<path id="rect403" class="st85" d="M375,253.4l2.8-0.2c4.4-0.2,8.1,3.1,8.3,7.4l0.8,14.3c0.2,4.4-3.1,8.1-7.4,8.3l-2.8,0.2
				c-4.4,0.2-8.1-3.1-8.3-7.4l-0.8-14.3C367.4,257.3,370.7,253.6,375,253.4z"/>
			<path id="path405" class="st87" d="M379.1,264.4c-3.2,1.5-6.8,1.7-10.1,0.6c-3.6-1.3-6.1-5.4-3.4-8.1c1.5-1.4,5.4-3.2,8.6-4.6
				c9-3.9,18.7,0.1,19.3,10.5c0,0,1.2,14.2-7.1,16.5l-0.6-2.1c0,0,3.3-3.2-0.5-5.8c-1.4-1.1-2.2-2.7-2.2-4.5
				C383.3,265.3,380.7,263.6,379.1,264.4z"/>
			<path id="path407" class="st85" d="M388.1,275.2c-0.6,0.8-1.8,1-2.6,0.4c-0.3-0.2-0.5-0.5-0.7-0.9c-0.7-1.6-0.4-3.4,0.8-4.7
				c0.6-0.8,1.8-1,2.7-0.4c0.3,0.2,0.5,0.5,0.7,0.9C389.6,272.1,389.3,273.9,388.1,275.2z"/>
			<path id="path409" class="st88" d="M378.7,283.2c0.1,0.4,4.5-1.1,4.3-1.5c0,0-1.9,2.8-4,3.6L378.7,283.2z"/>
			
				<ellipse id="ellipse411" transform="matrix(0.5 -0.866 0.866 0.5 -42.6847 471.3593)" class="st17" cx="386.9" cy="272.6" rx="4.9" ry="2.8"/>
			<circle id="circle413" class="st17" cx="370.5" cy="283.9" r="1.7"/>
			<path id="path415" class="st89" d="M370.8,283.9c0,0,9,6,16.5-10.8"/>
			<path id="path417" class="st17" d="M389,271.4l-1.3-0.1c0-0.1,0.8-12.7-7.1-17.5c-5-3-8.6-0.5-8.8-0.4l0,0
				c0.7-1.4,2.1-2.3,3.6-2.4c2.1,0,4.1,0.5,5.9,1.6c3.6,2.1,6,6.1,7.1,11.3C388.9,266.5,389.1,268.9,389,271.4z"/>
			<g id="g4950" transform="matrix(0.16611839,0.0959085,0,-0.22149118,218.14809,336.24999)" inkscape:label="ICON_UKHOST">
				<g id="g4952">
					<g>
						<defs>
							<polygon id="SVGID_1_" points="0,1080 1920,1080 1920,0 0,0 							"/>
						</defs>
						<clipPath id="SVGID_2_">
							<use xlink:href="#SVGID_1_"  style="overflow:visible;"/>
						</clipPath>
						<g id="g4954" class="st90">
							<g id="g4960" transform="translate(965.0645,541.3164)">
								<path id="path4962" inkscape:connector-curvature="0" class="st21" d="M0,0v-2.6v-46c0-0.7,0.5-1,1.1-0.7L19-38.9
									c0.6,0.4,1.1,1.2,1.1,2v34.3V0v34.3c0,0.7-0.5,1.6-1.1,2L1.1,46.6C0.5,47,0,46.7,0,46V0z"/>
							</g>
							<g id="g4964" transform="translate(996.3389,570.5312)">
								<path id="path4966" inkscape:connector-curvature="0" class="st21" d="M0,0c-0.6,0.4-1.1,0.1-1.1-0.7v-28.6v-2.6v-28.6
									c0-0.7,0.5-1,1.1-0.7l6.9,4c0.6,0.4,1.1,1.2,1.1,2v23.3v2.6v23.3c0,0.7-0.5,1.6-1.1,2L0,0z"/>
							</g>
							<g id="g4968" transform="translate(914.6963,554.2129)">
								<path id="path4970" inkscape:connector-curvature="0" class="st21" d="M0,0c0-0.7,0.6-1.2,1.3-0.9L38.1,9.7
									c0.7,0.2,1.3,1,1.3,1.7v21.7c0,0.7-0.5,1-1.1,0.7l-37-21.4C0.5,12,0,11.1,0,10.4V0z"/>
							</g>
							<g id="g4972" transform="translate(914.6963,541.3164)">
								<path id="path4974" inkscape:connector-curvature="0" class="st21" d="M0,0v-2.6v-3.8C0-7.2,0.6-7.9,1.3-8L38-13.3
									c0.7-0.1,1.3,0.4,1.3,1.1v9.5V0v9.5c0,0.7-0.6,1.2-1.3,1.1L1.3,5.3C0.6,5.2,0,4.6,0,3.8V0z"/>
							</g>
							<g id="g4976" transform="translate(914.6963,515.417)">
								<path id="path4978" inkscape:connector-curvature="0" class="st21" d="M0,0c0-0.7,0.5-1.6,1.1-2l37-21.4
									c0.6-0.4,1.1-0.1,1.1,0.7V-1c0,0.7-0.6,1.5-1.3,1.7L1.3,11.3c-0.7,0.2-1.3-0.2-1.3-1V0z"/>
							</g>
						</g>
					</g>
				</g>
			</g>
			
				<g id="g5019" transform="matrix(0.08839446,0.03217296,-0.01886162,-0.10696952,246.67593,363.10509)" inkscape:label="ICON_UKHOST">
				<g id="g5017">
					<g>
						<defs>
							<polygon id="SVGID_3_" points="0,1080 1920,1080 1920,0 0,0 							"/>
						</defs>
						<clipPath id="SVGID_4_">
							<use xlink:href="#SVGID_3_"  style="overflow:visible;"/>
						</clipPath>
						<g id="g5015" class="st91">
							<g id="g4997" transform="translate(965.0645,541.3164)">
								<path id="path4995" inkscape:connector-curvature="0" class="st92" d="M0,0l0-2.6l0-46c0-0.7,0.5-1,1.1-0.7L19-38.9
									c0.6,0.4,1.1,1.2,1.1,2l0,34.3l0,2.6l0,34.3c0,0.7-0.5,1.6-1.1,2L1.1,46.6C0.5,47,0,46.7,0,46L0,0z"/>
							</g>
							<g id="g5001" transform="translate(996.3389,570.5312)">
								<path id="path4999" inkscape:connector-curvature="0" class="st92" d="M0,0c-0.6,0.4-1.1,0.1-1.1-0.7l0-28.6l0-2.6l0-28.6
									c0-0.7,0.5-1,1.1-0.7l6.9,4c0.6,0.4,1.1,1.2,1.1,2l0,23.3l0,2.6L8-6c0,0.7-0.5,1.6-1.1,2L0,0z"/>
							</g>
							<g id="g5005" transform="translate(914.6963,554.2129)">
								<path id="path5003" inkscape:connector-curvature="0" class="st92" d="M0,0c0-0.7,0.6-1.2,1.3-0.9L38.1,9.7
									c0.7,0.2,1.3,1,1.3,1.7l0,21.7c0,0.7-0.5,1-1.1,0.7l-37-21.4C0.5,12,0,11.1,0,10.4L0,0z"/>
							</g>
							<g id="g5009" transform="translate(914.6963,541.3164)">
								<path id="path5007" inkscape:connector-curvature="0" class="st92" d="M0,0l0-2.6l0-3.8C0-7.2,0.6-7.9,1.3-8L38-13.3
									c0.7-0.1,1.3,0.4,1.3,1.1l0,9.5l0,2.6l0,9.5c0,0.7-0.6,1.2-1.3,1.1L1.3,5.3C0.6,5.2,0,4.6,0,3.8L0,0z"/>
							</g>
							<g id="g5013" transform="translate(914.6963,515.417)">
								<path id="path5011" inkscape:connector-curvature="0" class="st92" d="M0,0c0-0.7,0.5-1.6,1.1-2l37-21.4
									c0.6-0.4,1.1-0.1,1.1,0.7l0,21.7c0,0.7-0.6,1.5-1.3,1.7L1.3,11.3c-0.7,0.2-1.3-0.2-1.3-1L0,0z"/>
							</g>
						</g>
					</g>
				</g>
			</g>
		</g>
	</g>
</g>
</svg>
